<svg width="84" height="88" viewBox="0 0 84 88" fill="none" xmlns="http://www.w3.org/2000/svg">
<path d="M7.14647 40.8136C8.69103 39.75 10.5197 39.1338 12.4166 39.0379C16.202 38.6261 20.6429 41.6114 21.7798 46.128C22.1755 47.8313 22.0357 49.6094 21.3783 51.2362C20.721 52.8629 19.5757 54.265 18.088 55.2641C17.2344 55.8895 16.3045 56.4123 15.3192 56.8211C12.3497 58.1078 11.1325 58.481 9.16626 57.2328C7.19999 55.9846 6.65154 53.0766 5.87573 49.9883C4.64514 45.2015 4.41776 42.8467 7.14647 40.8136Z" stroke="#011520" stroke-width="2" stroke-linejoin="round"/>
<path d="M36.4678 87L40 67.2432C33.2591 66.1757 22.9725 62.2703 17 57" stroke="#011520" stroke-width="2" stroke-linecap="round" stroke-linejoin="round"/>
<path d="M65 87L66 76" stroke="#011520" stroke-width="2" stroke-linecap="round" stroke-linejoin="round"/>
<path d="M19.5715 42H29.3617C30.231 42 30.858 41.2884 30.7868 40.1163C30.8441 39.3841 30.9536 38.6567 31.1145 37.9395C31.7608 35.6865 32.7867 33.5548 34.1499 31.6325C35.8702 29.1526 36.8566 26.2551 37 23.2604C37 17.3163 32.9243 9 22.5072 9C18.6644 9.00736 14.981 10.5044 12.2624 13.1636C9.54382 15.8229 8.01129 19.4281 8 23.1907C8.13981 26.2249 9.12549 29.1638 10.8501 31.6884C12.157 33.657 13.1785 35.7937 13.8855 38.0372C13.9909 38.4094 14.0766 38.7866 14.1421 39.1674" stroke="#011520" stroke-width="2" stroke-miterlimit="10"/>
<path d="M23 14C20.6131 14 18.3239 14.9482 16.6361 16.636C14.9482 18.3239 14 20.6131 14 23" stroke="#011520" stroke-width="2" stroke-miterlimit="10" stroke-linecap="round"/>
<path d="M31 1L29 4" stroke="#011520" stroke-width="2" stroke-miterlimit="10" stroke-linecap="round"/>
<path d="M14 1L15 4" stroke="#011520" stroke-width="2" stroke-miterlimit="10" stroke-linecap="round"/>
<path d="M1 14L4 15" stroke="#011520" stroke-width="2" stroke-miterlimit="10" stroke-linecap="round"/>
<path d="M40 15L42 14" stroke="#011520" stroke-width="2" stroke-miterlimit="10" stroke-linecap="round"/>
<path d="M76 31C76 33.9667 75.0616 36.8668 73.3035 39.3335C71.5454 41.8003 69.0466 43.7229 66.1229 44.8582C63.1993 45.9935 59.9823 46.2906 56.8786 45.7118C53.7749 45.133 50.9239 43.7044 48.6863 41.6066C46.4486 39.5088 44.9248 36.8361 44.3074 33.9263C43.6901 31.0166 44.0069 28.0006 45.2179 25.2597C46.4289 22.5189 48.4797 20.1762 51.1109 18.5279C53.7421 16.8797 56.8355 16 60 16C62.1012 16 64.1817 16.388 66.1229 17.1418C68.0642 17.8956 69.828 19.0005 71.3138 20.3934C72.7995 21.7863 73.978 23.4399 74.7821 25.2597C75.5862 27.0796 76 29.0302 76 31V31Z" stroke="#011520" stroke-width="2" stroke-miterlimit="10"/>
<path d="M22 49H25.3085C25.4361 48.9882 25.5566 48.9472 25.6553 48.8821C25.754 48.817 25.8266 48.7305 25.8643 48.6332L26.4731 47.1347H28.6699C29.0438 47.0746 29.3801 46.914 29.6216 46.68C29.8631 46.4461 29.995 46.1532 29.995 45.8511C29.995 45.5489 29.8631 45.256 29.6216 45.0221C29.3801 44.7881 29.0438 44.6275 28.6699 44.5674C29.0599 44.533 29.4173 44.3786 29.6649 44.1375C29.9125 43.8963 30.0304 43.5878 29.9933 43.2784C29.9933 42.7859 29.583 42 28.6699 42H22.0529" stroke="#011520" stroke-width="2" stroke-linejoin="round"/>
<path d="M27 47C33.3818 49.6642 40.2137 51.0031 47.1016 50.9394L54.8607 60.3747L67.4711 53.584C78.0043 56.1322 84.0751 62.5785 82.8422 73.8044L80.3629 87" stroke="#011520" stroke-width="2" stroke-linecap="round" stroke-linejoin="round"/>
</svg>
