<svg width="65" height="91" viewBox="0 0 65 91" fill="none" xmlns="http://www.w3.org/2000/svg">
<path d="M64 89C64 89 63.1015 71.4278 61.4814 56.0453C60.3923 45.7183 51.2302 38 39.4813 38H26.657C15.7659 38 6.39951 44.326 3.02326 58.0459C1.47197 63.2434 0.804789 68.6616 1.04922 74.0771C1.33511 77.4834 4.99726 80.5653 9.06782 80.4166C14.5134 80.2004 33.3823 78.9973 33.3823 78.9973C34.7326 78.7628 35.9514 78.05 36.8126 76.9911C37.6738 75.9322 38.1189 74.5991 38.0655 73.2391C37.9566 70.5357 35.7103 67.4808 32.933 67.5213H13.8735" stroke="#011520" stroke-width="2" stroke-linecap="round" stroke-linejoin="round"/>
<path d="M15 80V89" stroke="#011520" stroke-width="2" stroke-linecap="round" stroke-linejoin="round"/>
<path d="M32.4453 31.9999C35.5132 32.0107 38.5154 31.1109 41.0715 29.4143C43.6277 27.7177 45.6228 25.3008 46.8044 22.4695C47.9859 19.6382 48.3007 16.52 47.7088 13.5097C47.1169 10.4994 45.645 7.73242 43.4795 5.55923C41.314 3.38604 38.5522 1.90438 35.5441 1.30186C32.5359 0.699345 29.4165 1.00309 26.5811 2.17462C23.7457 3.34616 21.3217 5.33278 19.6161 7.88291C17.9105 10.433 17 13.432 17 16.4999C17 20.6013 18.6255 24.5355 21.5205 27.4408C24.4155 30.346 28.344 31.9854 32.4453 31.9999V31.9999Z" stroke="#011520" stroke-width="2" stroke-miterlimit="10"/>
<path d="M37 70L38 58" stroke="#011520" stroke-width="2" stroke-miterlimit="10"/>
<path d="M24 58V68" stroke="#011520" stroke-width="2" stroke-miterlimit="10"/>
<path d="M23 58H39" stroke="#011520" stroke-width="2" stroke-miterlimit="10" stroke-linecap="round"/>
<path d="M38 58L37.3318 54.2733C37.3336 54.239 37.3281 54.2048 37.3153 54.1725C37.3026 54.1402 37.283 54.1105 37.2577 54.0851C37.2324 54.0597 37.2018 54.0391 37.1677 54.0245C37.1336 54.0099 37.0967 54.0016 37.0591 54H23.9409C23.9021 54 23.8637 54.0071 23.8281 54.021C23.7924 54.0349 23.7602 54.0552 23.7334 54.0807C23.7067 54.1063 23.6859 54.1365 23.6723 54.1696C23.6587 54.2027 23.6527 54.238 23.6545 54.2733L23 58" stroke="#011520" stroke-width="2" stroke-miterlimit="10"/>
<path d="M30.6792 43C30.3224 43.4073 30.0782 44.031 30 44.7343C29.9997 45.0683 30.0455 45.3981 30.1341 45.6986C30.2227 45.9991 30.3517 46.2624 30.5113 46.4686C30.6667 46.6702 30.7917 46.9282 30.8764 47.2226C30.9611 47.5169 31.0034 47.8395 30.9998 48.1652C30.9443 48.8847 30.7229 49.5416 30.3816 50" stroke="#011520" stroke-width="2" stroke-linecap="round" stroke-linejoin="round"/>
<path d="M50 90V80" stroke="#011520" stroke-width="2" stroke-linecap="round" stroke-linejoin="round"/>
</svg>
