<svg width="126" height="92" viewBox="0 0 126 92" fill="none" xmlns="http://www.w3.org/2000/svg">
<path d="M51 57L41 45.9914L51 35" stroke="#011520" stroke-width="2" stroke-linecap="round" stroke-linejoin="round"/>
<path d="M76 57L87 45.9914L76 35" stroke="#011520" stroke-width="2" stroke-linecap="round" stroke-linejoin="round"/>
<path d="M65 34L62 58" stroke="#011520" stroke-width="2" stroke-linecap="round" stroke-linejoin="round"/>
<path d="M98 72C94.5879 76.9659 90.2566 81.1637 85.2633 84.344C80.2701 87.5243 74.7169 89.6222 68.9335 90.5131C63.1501 91.4041 57.2545 91.0698 51.597 89.5303C45.9395 87.9908 40.6355 85.2774 36 81.5513" stroke="#011520" stroke-width="2" stroke-miterlimit="10" stroke-linecap="round"/>
<path d="M29 73L29.3521 88L43 75.2043L29 73Z" stroke="#011520" stroke-width="2" stroke-linejoin="round"/>
<path d="M29 19C32.4149 14.294 36.7478 10.3165 41.7417 7.30349C46.7355 4.2905 52.2885 2.30346 58.0712 1.46023C63.8539 0.616996 69.7483 0.934785 75.4048 2.39473C81.0614 3.85468 86.3646 6.42704 91 9.95917" stroke="#011520" stroke-width="2" stroke-miterlimit="10" stroke-linecap="round"/>
<path d="M98 18L97.6479 4L84 15.9426L98 18Z" stroke="#011520" stroke-width="2" stroke-linejoin="round"/>
<path d="M18.5 26C16.6211 26 14.7843 26.5572 13.2221 27.6011C11.6598 28.6449 10.4422 30.1286 9.72313 31.8645C9.0041 33.6004 8.81599 35.5106 9.18255 37.3534C9.54911 39.1962 10.4539 40.8889 11.7825 42.2175C13.1111 43.5461 14.8038 44.4509 16.6466 44.8174C18.4894 45.184 20.3996 44.9959 22.1355 44.2769C23.8714 43.5578 25.3551 42.3402 26.3989 40.7779C27.4428 39.2156 28 37.3789 28 35.5C28.0021 34.2518 27.7579 33.0156 27.2813 31.862C26.8046 30.7084 26.1049 29.6603 25.2223 28.7777C24.3397 27.8951 23.2916 27.1954 22.138 26.7187C20.9844 26.2421 19.7481 25.9979 18.5 26V26Z" stroke="#011520" stroke-width="2" stroke-linecap="round" stroke-linejoin="round"/>
<path d="M35 64C34.7517 58.0733 33.0302 51.3881 23.0156 51L17.9669 56.38L13.001 51C2.83739 51.4233 1.16553 58.3026 1 64" stroke="#011520" stroke-width="2" stroke-linecap="round" stroke-linejoin="round"/>
<path d="M108.518 26C106.441 25.9968 104.409 26.5512 102.68 27.5931C100.951 28.635 99.602 30.1175 98.8045 31.8531C98.007 33.5887 97.7965 35.4994 98.1996 37.3433C98.6027 39.1872 99.6012 40.8815 101.069 42.2117C102.537 43.5419 104.408 44.4484 106.445 44.8163C108.482 45.1841 110.594 44.997 112.514 44.2784C114.434 43.5599 116.075 42.3422 117.229 40.7796C118.384 39.217 119 37.3796 119 35.5C119 32.9833 117.896 30.5694 115.931 28.7883C113.966 27.0072 111.3 26.0044 108.518 26V26Z" stroke="#011520" stroke-width="2" stroke-linecap="round" stroke-linejoin="round"/>
<path d="M125 64C124.768 58.0733 123.029 51.3881 113.01 51L107.959 56.38L102.99 51C92.8217 51.4233 91.1656 58.3026 91 64" stroke="#011520" stroke-width="2" stroke-linecap="round" stroke-linejoin="round"/>
</svg>
